<?xml version="1.0" standalone="no"?>
<!DOCTYPE svg PUBLIC "-//W3C//DTD SVG 20010904//EN"
 "http://www.w3.org/TR/2001/REC-SVG-20010904/DTD/svg10.dtd">
<svg version="1.0" xmlns="http://www.w3.org/2000/svg"
 width="1040.000000pt" height="1040.000000pt" viewBox="0 0 1040.000000 1040.000000"
 preserveAspectRatio="xMidYMid meet">
<metadata>
Created by potrace 1.14, written by Peter Selinger 2001-2017
</metadata>
<g transform="translate(0.000000,1040.000000) scale(0.100000,-0.100000)"
fill="#000000" stroke="none">
<path d="M6636 6015 c4 -8 2 -15 -4 -15 -6 0 -12 6 -15 13 -3 9 -7 9 -17 0 -7
-6 -18 -9 -24 -7 -7 3 -23 0 -37 -5 -13 -5 -18 -10 -11 -10 7 -1 10 -6 7 -11
-4 -6 -12 -7 -18 -3 -8 5 -8 2 1 -9 10 -13 9 -15 -5 -15 -39 0 -40 -2 -33 -41
4 -21 10 -45 14 -53 4 -8 -2 -3 -13 10 -12 13 -21 19 -21 13 0 -6 12 -20 26
-31 20 -15 22 -21 10 -21 -20 0 -20 -9 0 -38 9 -13 22 -21 30 -18 8 3 15 0 15
-7 1 -7 2 -19 3 -27 0 -8 7 -14 15 -12 24 5 91 -9 86 -18 -3 -5 6 -7 20 -4 16
3 25 0 25 -8 1 -8 6 -6 15 5 10 14 20 17 37 12 13 -4 20 -4 16 0 -4 4 -1 13 5
20 9 10 15 10 26 2 11 -10 13 -8 7 9 -4 13 -1 26 8 33 8 7 12 20 9 28 -5 12
-2 15 10 10 9 -3 19 -2 22 3 4 6 -1 10 -9 10 -23 0 -19 15 7 29 12 6 15 10 5
7 -11 -3 -20 5 -28 24 -14 33 -76 101 -84 92 -3 -3 -6 -1 -6 4 -1 26 -17 35
-44 24 -24 -9 -27 -8 -22 5 4 10 -1 15 -14 15 -13 0 -18 -5 -14 -15z"/>
<path d="M2707 5499 c-10 -6 -21 -9 -23 -6 -14 14 -82 -25 -109 -61 -16 -23
-37 -43 -45 -46 -13 -5 -15 -24 -14 -103 1 -94 48 -407 64 -428 4 -5 10 -30
13 -55 9 -67 96 -234 130 -249 5 -2 23 -19 40 -38 18 -20 37 -41 42 -47 23
-24 55 -85 55 -103 0 -12 7 -26 15 -33 8 -7 15 -20 15 -30 0 -9 8 -28 19 -41
10 -13 28 -42 39 -64 12 -22 35 -53 51 -69 17 -16 33 -37 36 -47 3 -10 15 -21
26 -24 10 -4 19 -11 19 -16 0 -5 12 -22 28 -38 15 -16 44 -47 65 -70 21 -23
42 -41 47 -41 6 0 10 -6 10 -12 0 -14 35 -59 90 -118 19 -21 40 -44 46 -51 6
-8 23 -24 37 -36 13 -11 29 -28 33 -36 5 -7 21 -20 35 -28 46 -25 165 -107
178 -123 8 -9 19 -16 26 -16 8 0 15 -3 17 -8 2 -4 21 -21 43 -39 23 -17 46
-42 53 -55 12 -22 121 -98 141 -98 5 0 11 -5 13 -11 2 -6 26 -19 53 -29 200
-73 212 -80 275 -136 42 -38 166 -124 179 -124 6 0 22 -5 38 -11 15 -6 29 -10
30 -10 2 0 21 -6 43 -14 57 -20 170 -42 302 -60 62 -8 124 -18 138 -21 14 -3
45 -10 70 -14 25 -5 57 -11 71 -13 14 -3 46 -12 72 -21 25 -8 56 -17 69 -20
13 -2 43 -12 68 -21 119 -44 236 -62 315 -50 48 7 115 54 115 81 0 8 4 14 8
14 15 0 44 115 49 192 5 67 3 81 -16 112 -50 79 -124 102 -391 121 -67 4 -173
14 -215 20 -16 2 -57 7 -89 10 -33 3 -79 10 -104 16 -25 5 -47 7 -50 4 -3 -2
-10 -1 -16 4 -6 5 -42 14 -81 20 -120 20 -225 56 -225 78 0 8 -5 11 -10 8 -6
-3 -13 1 -16 9 -3 9 -11 16 -18 16 -6 0 -27 14 -45 30 -36 33 -135 86 -216
115 -27 10 -54 22 -60 27 -5 4 -16 8 -24 8 -8 0 -47 16 -88 35 -40 19 -83 37
-96 40 -33 9 -65 41 -117 119 -42 62 -53 71 -155 127 -128 71 -176 115 -199
183 -20 57 -77 131 -120 153 -55 28 -136 97 -136 115 0 10 -4 18 -8 18 -5 0
-20 26 -35 58 -14 31 -44 95 -65 142 -22 47 -43 96 -47 109 -12 39 -78 120
-102 127 -13 3 -23 12 -23 20 0 8 -4 14 -10 14 -5 0 -10 6 -10 13 0 8 -8 21
-18 31 -11 9 -25 35 -32 59 -8 23 -17 47 -21 52 -4 6 -12 37 -19 70 -20 101
-72 299 -86 325 -20 39 -63 80 -84 81 -33 2 -38 4 -46 12 -10 9 -15 9 -37 -4z"/>
</g>
</svg>
